<svg xmlns="http://www.w3.org/2000/svg" version="1.1" xmlns:xlink="http://www.w3.org/1999/xlink" xmlns:svgjs="http://svgjs.dev/svgjs" width="2000" height="1500" viewBox="0 0 2000 1500"><rect width="2000" height="1500" fill="#ffffff"></rect><g transform="matrix(0.75,0,0,0.75,249.090909090909,305.08745832675595)"><svg viewBox="0 0 396 235" data-background-color="#ffffff" preserveAspectRatio="xMidYMid meet" height="1186" width="2000" xmlns="http://www.w3.org/2000/svg" xmlns:xlink="http://www.w3.org/1999/xlink"><g id="tight-bounds" transform="matrix(1,0,0,1,0.2400000000000091,0.04294243194193825)"><svg viewBox="0 0 395.52 234.91411513611612" height="234.91411513611612" width="395.52"><g><svg viewBox="0 0 395.52 234.91411513611612" height="234.91411513611612" width="395.52"><g transform="matrix(1,0,0,1,0,145.18634744101632)"><svg viewBox="0 0 395.52 89.7277676950998" height="89.7277676950998" width="395.52"><g id="textblocktransform"><svg viewBox="0 0 395.52 89.7277676950998" height="89.7277676950998" width="395.52" id="textblock"><g><svg viewBox="0 0 395.52 89.7277676950998" height="89.7277676950998" width="395.52"><g transform="matrix(1,0,0,1,0,0)"><svg width="395.52" viewBox="2.2499999999999996 -37.9 220.38 50" height="89.7277676950998" data-palette-color="#85144b"><path d="M20-24.85L19.2-21.5Q18.35-21.7 16.85-21.93 15.35-22.15 13.8-22.15L13.8-22.15Q11.55-22.15 10.13-21.25 8.7-20.35 7.9-18.93 7.1-17.5 6.8-15.78 6.5-14.05 6.5-12.4L6.5-12.4Q6.5-9.85 7.15-8.03 7.8-6.2 8.88-5.05 9.95-3.9 11.35-3.38 12.75-2.85 14.3-2.85L14.3-2.85Q15.35-2.85 16.32-2.98 17.3-3.1 18.13-3.28 18.95-3.45 19.7-3.7L19.7-3.7 20.5-0.35Q19.45-0.05 18.55 0.15 17.65 0.35 16.43 0.5 15.2 0.65 13.8 0.65L13.8 0.65Q11.05 0.65 8.9-0.05 6.75-0.75 5.28-2.3 3.8-3.85 3.03-6.35 2.25-8.85 2.25-12.45L2.25-12.45Q2.25-15.95 3.23-18.48 4.2-21 5.8-22.58 7.4-24.15 9.47-24.9 11.55-25.65 13.8-25.65L13.8-25.65Q15-25.65 16.13-25.53 17.25-25.4 18.1-25.25L18.1-25.25Q19.1-25.05 20-24.85L20-24.85ZM27.7-12.45L27.7-12.45Q27.7-7.6 29.87-5.23 32.05-2.85 35.75-2.85L35.75-2.85Q39.4-2.85 41.45-5.2 43.5-7.55 43.5-12.25L43.5-12.25Q43.5-17.25 41.32-19.7 39.15-22.15 35.4-22.15L35.4-22.15Q31.65-22.15 29.67-19.73 27.7-17.3 27.7-12.45ZM23.45-12.5L23.45-12.5Q23.45-16.3 24.65-18.82 25.85-21.35 27.7-22.88 29.55-24.4 31.67-25.03 33.8-25.65 35.7-25.65L35.7-25.65Q37.5-25.65 39.62-25.08 41.75-24.5 43.55-23.03 45.35-21.55 46.55-19.07 47.75-16.6 47.75-12.8L47.75-12.8Q47.75-8.85 46.52-6.25 45.3-3.65 43.45-2.13 41.6-0.6 39.45 0.03 37.3 0.65 35.45 0.65L35.45 0.65Q33.55 0.65 31.45 0.05 29.35-0.55 27.57-2.02 25.8-3.5 24.62-6.05 23.45-8.6 23.45-12.5ZM53.6 0L53.6-20.15Q53.65-21.2 53.35-24.7L53.35-24.7 57.05-25.2 57.6-22Q59.1-23 60.57-23.75 62.05-24.5 63.6-25.08 65.15-25.65 66.6-25.65L66.6-25.65Q68.65-25.65 70.02-25.18 71.4-24.7 72.25-23.6 73.1-22.5 73.47-20.7 73.85-18.9 73.85-16.2L73.85-16.2 73.85 0 69.85 0 69.85-15.75Q69.85-17.25 69.8-18.43 69.75-19.6 69.37-20.43 69-21.25 68.22-21.7 67.45-22.15 66.05-22.15L66.05-22.15Q64.75-22.15 63.3-21.58 61.85-21 60.45-20.25 59.05-19.5 57.6-18.5L57.6-18.5 57.6 0 53.6 0ZM80.94 0L80.94-20.15Q80.99-21.2 80.69-24.7L80.69-24.7 84.39-25.2 84.94-22Q86.44-23 87.92-23.75 89.39-24.5 90.94-25.08 92.49-25.65 93.94-25.65L93.94-25.65Q95.99-25.65 97.37-25.18 98.74-24.7 99.59-23.6 100.44-22.5 100.82-20.7 101.19-18.9 101.19-16.2L101.19-16.2 101.19 0 97.19 0 97.19-15.75Q97.19-17.25 97.14-18.43 97.09-19.6 96.72-20.43 96.34-21.25 95.57-21.7 94.79-22.15 93.39-22.15L93.39-22.15Q92.09-22.15 90.64-21.58 89.19-21 87.79-20.25 86.39-19.5 84.94-18.5L84.94-18.5 84.94 0 80.94 0ZM126.09-3.95L126.84-0.6Q125.69-0.25 124.47 0 123.24 0.25 121.77 0.45 120.29 0.65 118.69 0.65L118.69 0.65Q116.19 0.65 114.04-0.05 111.89-0.75 110.29-2.3 108.69-3.85 107.77-6.33 106.84-8.8 106.84-12.4L106.84-12.4Q106.84-15.65 107.74-18.13 108.64-20.6 110.22-22.28 111.79-23.95 113.92-24.8 116.04-25.65 118.54-25.65L118.54-25.65Q120.99-25.65 122.79-24.7 124.59-23.75 125.77-22.13 126.94-20.5 127.52-18.32 128.09-16.15 128.09-13.75L128.09-13.75 127.34-11.55 111.19-11.55Q111.19-10 111.59-8.45 111.99-6.9 112.97-5.65 113.94-4.4 115.52-3.63 117.09-2.85 119.44-2.85L119.44-2.85Q120.94-2.85 122.19-3.03 123.44-3.2 124.37-3.43 125.29-3.65 126.09-3.95L126.09-3.95ZM111.34-14.75L123.94-14.75Q123.94-15.1 123.79-16.3 123.64-17.5 123.09-18.8 122.54-20.1 121.39-21.13 120.24-22.15 118.34-22.15L118.34-22.15Q116.24-22.15 114.89-21.28 113.54-20.4 112.74-19.2 111.94-18 111.64-16.75 111.34-15.5 111.34-14.75L111.34-14.75ZM149.94-24.85L149.14-21.5Q148.29-21.7 146.79-21.93 145.29-22.15 143.74-22.15L143.74-22.15Q141.49-22.15 140.06-21.25 138.64-20.35 137.84-18.93 137.04-17.5 136.74-15.78 136.44-14.05 136.44-12.4L136.44-12.4Q136.44-9.85 137.09-8.03 137.74-6.2 138.81-5.05 139.89-3.9 141.29-3.38 142.69-2.85 144.24-2.85L144.24-2.85Q145.29-2.85 146.26-2.98 147.24-3.1 148.06-3.28 148.89-3.45 149.64-3.7L149.64-3.7 150.44-0.35Q149.39-0.05 148.49 0.15 147.59 0.35 146.36 0.5 145.14 0.65 143.74 0.65L143.74 0.65Q140.99 0.65 138.84-0.05 136.69-0.75 135.21-2.3 133.74-3.85 132.96-6.35 132.19-8.85 132.19-12.45L132.19-12.45Q132.19-15.95 133.16-18.48 134.14-21 135.74-22.58 137.34-24.15 139.41-24.9 141.49-25.65 143.74-25.65L143.74-25.65Q144.94-25.65 146.06-25.53 147.19-25.4 148.04-25.25L148.04-25.25Q149.04-25.05 149.94-24.85L149.94-24.85ZM157.24-32.15L161.24-32.65 161.24-25.15 168.49-25.15 168.49-21.9 161.24-21.9 161.24-8.55Q161.24-6.9 161.31-5.8 161.39-4.7 161.64-4.05 161.89-3.4 162.34-3.13 162.79-2.85 163.49-2.85L163.49-2.85Q165.39-2.9 167.89-4.25L167.89-4.25 169.09-1.2Q167.44-0.1 166.01 0.28 164.59 0.65 163.19 0.65L163.19 0.65Q159.89 0.65 158.56-1.23 157.24-3.1 157.24-7.45L157.24-7.45 157.24-21.9 152.64-21.9 152.64-25.15 157.24-25.15 157.24-32.15ZM173.58 0L173.58-25.2 177.58-25.65 177.58 0 173.58 0ZM172.93-32.35L172.93-32.35Q172.93-33.5 173.71-34.27 174.48-35.05 175.63-35.05L175.63-35.05Q176.83-35.05 177.66-34.27 178.48-33.5 178.48-32.35L178.48-32.35Q178.48-31.2 177.66-30.43 176.83-29.65 175.63-29.65L175.63-29.65Q174.48-29.65 173.71-30.43 172.93-31.2 172.93-32.35ZM186.93 0L186.93-21.9 182.28-21.9 182.28-25.15 186.93-25.15Q186.93-28.65 187.41-31.08 187.88-33.5 188.93-35.02 189.98-36.55 191.63-37.23 193.28-37.9 195.63-37.9L195.63-37.9Q197.53-37.9 199.18-37.27 200.83-36.65 201.83-35.75L201.83-35.75 200.08-32.75Q199.08-33.5 198-33.95 196.93-34.4 195.68-34.4L195.68-34.4Q194.03-34.4 193.08-33.68 192.13-32.95 191.66-31.7 191.18-30.45 191.06-28.78 190.93-27.1 190.93-25.15L190.93-25.15 197.18-25.15 197.18-21.9 190.93-21.9 190.93 0 186.93 0ZM208.58-0.65L198.53-25.15 202.78-25.15 207.48-13.8Q208.18-12.15 208.75-10.5 209.33-8.85 209.78-7.55L209.78-7.55Q210.33-6 210.73-4.55L210.73-4.55 210.78-4.55Q211.23-6 211.78-7.55L211.78-7.55Q212.23-8.85 212.83-10.5 213.43-12.15 214.08-13.8L214.08-13.8 218.43-25.15 222.63-25.15 210.73 4.85Q210.03 6.7 208.9 8.05 207.78 9.4 206.73 10.3L206.73 10.3Q205.48 11.35 204.13 12.1L204.13 12.1 202.18 8.65Q203.23 8.15 204.13 7.4L204.13 7.4Q204.93 6.75 205.73 5.78 206.53 4.8 207.03 3.45L207.03 3.45 208.58-0.65Z" opacity="1" transform="matrix(1,0,0,1,0,0)" fill="#85144b" class="wordmark-text-0" data-fill-palette-color="primary" id="text-0"></path></svg></g></svg></g></svg></g></svg></g><g transform="matrix(1,0,0,1,131.30954660503122,0)"><svg viewBox="0 0 132.90090678993755 124.00377495462793" height="124.00377495462793" width="132.90090678993755"><g><svg xmlns="http://www.w3.org/2000/svg" xmlns:xlink="http://www.w3.org/1999/xlink" version="1.1" x="0" y="0" viewBox="3.1 1.8 95.60000000000001 89.2" style="enable-background:new 0 0 100 100;" xml:space="preserve" height="124.00377495462793" width="132.90090678993755" class="icon-icon-0" data-fill-palette-color="accent" id="icon-0"><rect x="55" y="89" width="3" height="2" fill="#85144b" data-fill-palette-color="accent"></rect><path d="M74.8 91H74V89H74.8C76.4 89 77.9 88.9 79.3 88.7L79.6 90.7C78.1 90.9 76.5 91 74.8 91" fill="#85144b" data-fill-palette-color="accent"></path><rect x="67" y="89" width="5" height="2" fill="#85144b" data-fill-palette-color="accent"></rect><rect x="60" y="89" width="5" height="2" fill="#85144b" data-fill-palette-color="accent"></rect><path d="M81.7 90.3L81.3 88.3C83 87.9 84.5 87.4 86 86.8L86.8 88.6C85.2 89.4 83.5 89.9 81.7 90.3" fill="#85144b" data-fill-palette-color="accent"></path><path d="M88.7 87.7L87.7 86C89.1 85.2 90.4 84.2 91.6 83.1L93 84.5C91.7 85.7 90.3 86.8 88.7 87.7" fill="#85144b" data-fill-palette-color="accent"></path><path d="M94.4 82.9L92.8 81.6C93.8 80.3 94.7 79 95.3 77.5L97.1 78.3C96.5 79.9 95.6 81.5 94.4 82.9" fill="#85144b" data-fill-palette-color="accent"></path><path d="M97.9 76.2L96 75.7C96.4 74.2 96.7 72.6 96.7 71L98.7 70.9C98.6 72.8 98.4 74.5 97.9 76.2" fill="#85144b" data-fill-palette-color="accent"></path><path d="M96.5 69C96.3 67.4 95.9 65.8 95.2 64.4L97 63.6C97.7 65.3 98.2 67 98.4 68.8z" fill="#85144b" data-fill-palette-color="accent"></path><path d="M94.4 62.6C93.6 61.2 92.6 59.9 91.4 58.8L92.8 57.4C94.1 58.7 95.2 60.1 96.1 61.6z" fill="#85144b" data-fill-palette-color="accent"></path><path d="M90 57.5C88.7 56.5 87.3 55.7 85.8 55L86.6 53.2C88.3 53.9 89.8 54.8 91.2 55.9z" fill="#85144b" data-fill-palette-color="accent"></path><path d="M83.9 54.4C82.4 53.9 80.8 53.5 79.1 53.3L79.4 51.3C81.2 51.5 82.9 51.9 84.6 52.5z" fill="#85144b" data-fill-palette-color="accent"></path><path d="M77.2 53.1C76.5 53 75.7 53 75 53H72V51H75C75.8 51 76.6 51 77.3 51.1z" fill="#85144b" data-fill-palette-color="accent"></path><rect x="65" y="51" width="5" height="2" fill="#85144b" data-fill-palette-color="accent"></rect><path d="M63 53H57.8L57.9 51H63z" fill="#85144b" data-fill-palette-color="accent"></path><path d="M55.6 52.8C53.7 52.5 52 52 50.4 51.2L51.3 49.4C52.7 50.1 54.2 50.5 55.9 50.8z" fill="#85144b" data-fill-palette-color="accent"></path><path d="M48.6 50C47 48.9 45.8 47.5 44.9 45.9L46.7 44.9C47.4 46.2 48.5 47.4 49.8 48.3z" fill="#85144b" data-fill-palette-color="accent"></path><path d="M44 43.9C43.7 42.8 43.5 41.7 43.5 40.5 43.5 39.8 43.6 39 43.7 38.3L45.7 38.7C45.6 39.3 45.5 39.9 45.5 40.5 45.5 41.4 45.6 42.4 45.9 43.3z" fill="#85144b" data-fill-palette-color="accent"></path><path d="M46.2 36.9L44.4 36.1C45.1 34.4 46.2 32.9 47.7 31.6L49 33.1C47.7 34.3 46.8 35.5 46.2 36.9" fill="#85144b" data-fill-palette-color="accent"></path><path d="M50.5 32.1L49.5 30.4C51 29.5 52.7 28.8 54.6 28.4L55 30.4C53.3 30.7 51.8 31.3 50.5 32.1" fill="#85144b" data-fill-palette-color="accent"></path><path d="M56.8 30.1L56.6 28.1C57.4 28 58.2 28 59 28H62V30H59C58.3 30 57.5 30 56.8 30.1" fill="#85144b" data-fill-palette-color="accent"></path><rect x="64" y="28" width="3" height="2" fill="#85144b" data-fill-palette-color="accent"></rect><path d="M52.5 90.3C52.3 90.3 52.1 90.2 51.9 90.1L37.6 80.8C33.9 83.3 29.4 84.7 24.8 84.7 12.8 84.7 3.1 75.7 3.1 64.5S12.8 44.3 24.8 44.3 46.5 53.3 46.5 64.5C46.5 67.5 45.8 70.4 44.4 73.1L53.4 88.6C53.7 89 53.6 89.6 53.2 89.9 53 90.2 52.8 90.3 52.5 90.3M37.6 78.4C37.8 78.4 38 78.5 38.2 78.6L49.2 85.8 42.2 73.8C42 73.5 42 73.1 42.2 72.7 43.6 70.2 44.3 67.5 44.3 64.6 44.3 54.7 35.5 46.6 24.8 46.6S5.3 54.7 5.3 64.6 14.1 82.6 24.8 82.6C29.3 82.6 33.5 81.3 36.9 78.7 37.1 78.5 37.4 78.4 37.6 78.4" fill="#85144b" data-fill-palette-color="accent"></path><path d="M69.2 28.9C68.9 28.9 68.7 28.8 68.4 28.6 68 28.2 68 27.7 68.2 27.3L73.2 18.7C72.5 17.2 72.1 15.5 72.1 13.8 72.1 7.2 77.9 1.8 85 1.8S97.9 7.2 97.9 13.8 92.1 25.8 85 25.8C82.3 25.8 79.8 25.1 77.7 23.7L69.8 28.8C69.6 28.8 69.4 28.9 69.2 28.9M85 3.9C79.1 3.9 74.3 8.3 74.3 13.7 74.3 15.2 74.7 16.7 75.4 18.1 75.6 18.4 75.6 18.8 75.4 19.2L72.4 24.4 77 21.4C77.4 21.1 77.9 21.2 78.2 21.4 80.1 22.8 82.4 23.5 84.9 23.5 90.8 23.5 95.6 19.1 95.6 13.7S90.9 3.9 85 3.9" fill="#85144b" data-fill-palette-color="accent"></path></svg></g></svg></g><g></g></svg></g><defs></defs></svg><rect width="395.52" height="234.91411513611612" fill="none" stroke="none" visibility="hidden"></rect></g></svg></g></svg>