<svg xmlns="http://www.w3.org/2000/svg" version="1.1" xmlns:xlink="http://www.w3.org/1999/xlink" xmlns:svgjs="http://svgjs.dev/svgjs" width="128" height="128" viewBox="0 0 128 128"><g transform="matrix(0.8046875,0,0,0.8046875,12.221578124999994,15.230018501569035)"><svg viewBox="0 0 96 90" data-background-color="#ffffff" preserveAspectRatio="xMidYMid meet" height="120" width="128" xmlns="http://www.w3.org/2000/svg" xmlns:xlink="http://www.w3.org/1999/xlink"><g id="tight-bounds" transform="matrix(1,0,0,1,0.25950000000000273,0.4555167364016768)"><svg viewBox="0 0 95.481 89.08896652719665" height="89.08896652719665" width="95.481"><g><svg viewBox="0 0 95.481 89.08896652719665" height="89.08896652719665" width="95.481"><g><svg viewBox="0 0 95.481 89.08896652719665" height="89.08896652719665" width="95.481"><g id="textblocktransform"><svg viewBox="0 0 95.481 89.08896652719665" height="89.08896652719665" width="95.481" id="textblock"><g><svg viewBox="0 0 95.481 89.08896652719665" height="89.08896652719665" width="95.481"><g><svg viewBox="0 0 95.481 89.08896652719665" height="89.08896652719665" width="95.481"><g><svg xmlns="http://www.w3.org/2000/svg" xmlns:xlink="http://www.w3.org/1999/xlink" version="1.1" x="0" y="0" viewBox="3.1 1.8 95.60000000000001 89.2" style="enable-background:new 0 0 100 100;" xml:space="preserve" height="89.08896652719665" width="95.481" class="icon-icon-0" data-fill-palette-color="accent" id="icon-0"><rect x="55" y="89" width="3" height="2" fill="#85144b" data-fill-palette-color="accent"></rect><path d="M74.8 91H74V89H74.8C76.4 89 77.9 88.9 79.3 88.7L79.6 90.7C78.1 90.9 76.5 91 74.8 91" fill="#85144b" data-fill-palette-color="accent"></path><rect x="67" y="89" width="5" height="2" fill="#85144b" data-fill-palette-color="accent"></rect><rect x="60" y="89" width="5" height="2" fill="#85144b" data-fill-palette-color="accent"></rect><path d="M81.7 90.3L81.3 88.3C83 87.9 84.5 87.4 86 86.8L86.8 88.6C85.2 89.4 83.5 89.9 81.7 90.3" fill="#85144b" data-fill-palette-color="accent"></path><path d="M88.7 87.7L87.7 86C89.1 85.2 90.4 84.2 91.6 83.1L93 84.5C91.7 85.7 90.3 86.8 88.7 87.7" fill="#85144b" data-fill-palette-color="accent"></path><path d="M94.4 82.9L92.8 81.6C93.8 80.3 94.7 79 95.3 77.5L97.1 78.3C96.5 79.9 95.6 81.5 94.4 82.9" fill="#85144b" data-fill-palette-color="accent"></path><path d="M97.9 76.2L96 75.7C96.4 74.2 96.7 72.6 96.7 71L98.7 70.9C98.6 72.8 98.4 74.5 97.9 76.2" fill="#85144b" data-fill-palette-color="accent"></path><path d="M96.5 69C96.3 67.4 95.9 65.8 95.2 64.4L97 63.6C97.7 65.3 98.2 67 98.4 68.8z" fill="#85144b" data-fill-palette-color="accent"></path><path d="M94.4 62.6C93.6 61.2 92.6 59.9 91.4 58.8L92.8 57.4C94.1 58.7 95.2 60.1 96.1 61.6z" fill="#85144b" data-fill-palette-color="accent"></path><path d="M90 57.5C88.7 56.5 87.3 55.7 85.8 55L86.6 53.2C88.3 53.9 89.8 54.8 91.2 55.9z" fill="#85144b" data-fill-palette-color="accent"></path><path d="M83.9 54.4C82.4 53.9 80.8 53.5 79.1 53.3L79.4 51.3C81.2 51.5 82.9 51.9 84.6 52.5z" fill="#85144b" data-fill-palette-color="accent"></path><path d="M77.2 53.1C76.5 53 75.7 53 75 53H72V51H75C75.8 51 76.6 51 77.3 51.1z" fill="#85144b" data-fill-palette-color="accent"></path><rect x="65" y="51" width="5" height="2" fill="#85144b" data-fill-palette-color="accent"></rect><path d="M63 53H57.8L57.9 51H63z" fill="#85144b" data-fill-palette-color="accent"></path><path d="M55.6 52.8C53.7 52.5 52 52 50.4 51.2L51.3 49.4C52.7 50.1 54.2 50.5 55.9 50.8z" fill="#85144b" data-fill-palette-color="accent"></path><path d="M48.6 50C47 48.9 45.8 47.5 44.9 45.9L46.7 44.9C47.4 46.2 48.5 47.4 49.8 48.3z" fill="#85144b" data-fill-palette-color="accent"></path><path d="M44 43.9C43.7 42.8 43.5 41.7 43.5 40.5 43.5 39.8 43.6 39 43.7 38.3L45.7 38.7C45.6 39.3 45.5 39.9 45.5 40.5 45.5 41.4 45.6 42.4 45.9 43.3z" fill="#85144b" data-fill-palette-color="accent"></path><path d="M46.2 36.9L44.4 36.1C45.1 34.4 46.2 32.9 47.7 31.6L49 33.1C47.7 34.3 46.8 35.5 46.2 36.9" fill="#85144b" data-fill-palette-color="accent"></path><path d="M50.5 32.1L49.5 30.4C51 29.5 52.7 28.8 54.6 28.4L55 30.4C53.3 30.7 51.8 31.3 50.5 32.1" fill="#85144b" data-fill-palette-color="accent"></path><path d="M56.8 30.1L56.6 28.1C57.4 28 58.2 28 59 28H62V30H59C58.3 30 57.5 30 56.8 30.1" fill="#85144b" data-fill-palette-color="accent"></path><rect x="64" y="28" width="3" height="2" fill="#85144b" data-fill-palette-color="accent"></rect><path d="M52.5 90.3C52.3 90.3 52.1 90.2 51.9 90.1L37.6 80.8C33.9 83.3 29.4 84.7 24.8 84.7 12.8 84.7 3.1 75.7 3.1 64.5S12.8 44.3 24.8 44.3 46.5 53.3 46.5 64.5C46.5 67.5 45.8 70.4 44.4 73.1L53.4 88.6C53.7 89 53.6 89.6 53.2 89.9 53 90.2 52.8 90.3 52.5 90.3M37.6 78.4C37.8 78.4 38 78.5 38.2 78.6L49.2 85.8 42.2 73.8C42 73.5 42 73.1 42.2 72.7 43.6 70.2 44.3 67.5 44.3 64.6 44.3 54.7 35.5 46.6 24.8 46.6S5.3 54.7 5.3 64.6 14.1 82.6 24.8 82.6C29.3 82.6 33.5 81.3 36.9 78.7 37.1 78.5 37.4 78.4 37.6 78.4" fill="#85144b" data-fill-palette-color="accent"></path><path d="M69.2 28.9C68.9 28.9 68.7 28.8 68.4 28.6 68 28.2 68 27.7 68.2 27.3L73.2 18.7C72.5 17.2 72.1 15.5 72.1 13.8 72.1 7.2 77.9 1.8 85 1.8S97.9 7.2 97.9 13.8 92.1 25.8 85 25.8C82.3 25.8 79.8 25.1 77.7 23.7L69.8 28.8C69.6 28.8 69.4 28.9 69.2 28.9M85 3.9C79.1 3.9 74.3 8.3 74.3 13.7 74.3 15.2 74.7 16.7 75.4 18.1 75.6 18.4 75.6 18.8 75.4 19.2L72.4 24.4 77 21.4C77.4 21.1 77.9 21.2 78.2 21.4 80.1 22.8 82.4 23.5 84.9 23.5 90.8 23.5 95.6 19.1 95.6 13.7S90.9 3.9 85 3.9" fill="#85144b" data-fill-palette-color="accent"></path></svg></g></svg></g></svg></g></svg></g></svg></g><g></g></svg></g><defs></defs></svg><rect width="95.481" height="89.08896652719665" fill="none" stroke="none" visibility="hidden"></rect></g></svg></g></svg>